<?xml version="1.0" standalone="no"?>
<!DOCTYPE svg PUBLIC "-//W3C//DTD SVG 20010904//EN"
 "http://www.w3.org/TR/2001/REC-SVG-20010904/DTD/svg10.dtd">
<svg version="1.0" xmlns="http://www.w3.org/2000/svg"
 width="1152.000000pt" height="1152.000000pt" viewBox="0 0 1152.000000 1152.000000"
 preserveAspectRatio="xMidYMid meet">
<metadata>
Created by potrace 1.11, written by Peter Selinger 2001-2013
</metadata>
<g transform="translate(0.000000,1152.000000) scale(0.100000,-0.100000)"
fill="#000000" stroke="none">
<path d="M4206 7476 c-971 -971 -1766 -1768 -1766 -1771 0 -7 3528 -3535 3535
-3535 7 0 3535 3528 3535 3535 0 4 -477 483 -1060 1066 l-1060 1061 -1061
-1063 -1060 -1062 23 -25 c44 -47 680 -682 684 -682 2 0 320 317 708 704 l704
705 333 -333 c184 -183 342 -342 352 -353 17 -19 -8 -45 -1039 -1077 l-1057
-1057 -25 23 c-13 13 -490 488 -1058 1057 l-1035 1034 23 25 c13 13 648 649
1412 1413 l1389 1389 -19 22 c-30 34 -684 688 -688 688 -2 0 -798 -794 -1770
-1764z"/>
</g>
</svg>
